<?xml version="1.0" encoding="UTF-8"?>
<svg width="800" height="600" viewBox="0 0 800 600" fill="none" xmlns="http://www.w3.org/2000/svg">
  <!-- Background Elements -->
  <circle cx="400" cy="300" r="250" fill="#2563eb" fill-opacity="0.1"/>
  <circle cx="400" cy="300" r="200" fill="#7c3aed" fill-opacity="0.1"/>
  
  <!-- Career Elements -->
  <g transform="translate(200, 100)">
    <!-- Laptop -->
    <rect x="100" y="200" width="200" height="120" rx="10" fill="#2563eb"/>
    <rect x="110" y="210" width="180" height="100" rx="5" fill="white"/>
    <rect x="150" y="320" width="100" height="10" rx="5" fill="#2563eb"/>
    
    <!-- Documents -->
    <rect x="320" y="180" width="80" height="100" rx="5" fill="#7c3aed" fill-opacity="0.8"/>
    <rect x="330" y="190" width="60" height="10" rx="2" fill="white"/>
    <rect x="330" y="210" width="60" height="10" rx="2" fill="white"/>
    <rect x="330" y="230" width="40" height="10" rx="2" fill="white"/>
    
    <!-- Person -->
    <circle cx="250" cy="150" r="40" fill="#2563eb"/>
    <path d="M230,150 Q250,170 270,150" stroke="white" stroke-width="3" fill="none"/>
    <circle cx="240" cy="140" r="5" fill="white"/>
    <circle cx="260" cy="140" r="5" fill="white"/>
    
    <!-- Success Icons -->
    <circle cx="150" cy="100" r="20" fill="#7c3aed"/>
    <path d="M140,100 L148,108 L160,92" stroke="white" stroke-width="3" fill="none"/>
    
    <circle cx="350" cy="100" r="20" fill="#7c3aed"/>
    <text x="344" y="108" font-family="Arial" font-size="24" fill="white">✓</text>
  </g>
  
  <!-- Decorative Elements -->
  <circle cx="150" cy="450" r="10" fill="#2563eb" fill-opacity="0.5"/>
  <circle cx="650" cy="150" r="10" fill="#7c3aed" fill-opacity="0.5"/>
  <circle cx="700" cy="400" r="15" fill="#2563eb" fill-opacity="0.3"/>
  <circle cx="100" cy="200" r="15" fill="#7c3aed" fill-opacity="0.3"/>
  
  <!-- Connection Lines -->
  <path d="M150,450 Q400,500 650,150" stroke="#2563eb" stroke-width="2" stroke-dasharray="5,5" fill="none" opacity="0.3"/>
  <path d="M100,200 Q400,100 700,400" stroke="#7c3aed" stroke-width="2" stroke-dasharray="5,5" fill="none" opacity="0.3"/>
</svg>
